<svg xmlns="http://www.w3.org/2000/svg" width="20" height="19" fill="none" viewBox="0 0 20 19"><path stroke="#fff" stroke-width="1.5" d="M2.943 16.212 3.069 15.355C3.141 14.864 3.563 14.5 4.059 14.5H15.777C16.273 14.5 16.694 14.864 16.766 15.355L16.892 16.212C16.981 16.815 16.513 17.357 15.903 17.357H3.933C3.322 17.357 2.854 16.815 2.943 16.212ZM14.917 14.5H4.917L5.987 8.613C6.332 6.714 7.986 5.333 9.917 5.333 11.847 5.333 13.501 6.714 13.846 8.613L14.917 14.5Z"/><path stroke="#fff" stroke-linecap="round" stroke-width="1.5" d="M9.917.75V3.667M16.167 9.708H19.083M14.917 4.917 17 2.833M4.917 4.917 2.833 2.833M.75 9.708H3.667"/></svg>