<svg xmlns="http://www.w3.org/2000/svg" width="20" height="20" fill="none" viewBox="0 0 20 20"><path stroke="#fff" stroke-linecap="round" stroke-linejoin="round" stroke-width="1.5" d="M6.25004 11.25V14.375C6.25004 14.5408 6.31589 14.6998 6.4331 14.817C6.55031 14.9342 6.70928 15 6.87504 15H14.4076L17.5 17.5V7.50003C17.5 7.33427 17.4342 7.1753 17.317 7.05809C17.1998 6.94088 17.0408 6.87503 16.875 6.87503H13.75"/><path stroke="#fff" stroke-linecap="round" stroke-linejoin="round" stroke-width="1.5" d="M5.59241 11.2501L2.5 13.7501V3.75006C2.5 3.5843 2.56585 3.42533 2.68306 3.30812C2.80027 3.19091 2.95924 3.12506 3.125 3.12506H13.125C13.2908 3.12506 13.4497 3.19091 13.5669 3.30812C13.6842 3.42533 13.75 3.5843 13.75 3.75006V10.6251C13.75 10.7908 13.6842 10.9498 13.5669 11.067C13.4497 11.1842 13.2908 11.2501 13.125 11.2501H5.59241Z"/></svg>