<svg xmlns="http://www.w3.org/2000/svg" width="20" height="20" fill="none" viewBox="0 0 20 20"><path stroke="#fff" stroke-linecap="round" stroke-linejoin="round" stroke-width="1.5" d="M11.875 8.75H15M11.875 11.25H15M16.875 3.75H3.125C2.78 3.75 2.5 4.03 2.5 4.375V15.625C2.5 15.97 2.78 16.25 3.125 16.25H16.875C17.22 16.25 17.5 15.97 17.5 15.625V4.375C17.5 4.03 17.22 3.75 16.875 3.75Z"/><path stroke="#fff" stroke-linecap="round" stroke-linejoin="round" stroke-width="1.5" d="M7.5 11.25C8.536 11.25 9.375 10.411 9.375 9.375 9.375 8.339 8.536 7.5 7.5 7.5 6.464 7.5 5.625 8.339 5.625 9.375 5.625 10.411 6.464 11.25 7.5 11.25ZM5 13.125C5.277 12.047 6.335 11.25 7.5 11.25 8.665 11.25 9.723 12.046 10 13.125"/></svg>